<svg width="100" height="100" viewBox="0 0 100 100" fill="none" xmlns="http://www.w3.org/2000/svg">
<path d="M48.3789 7.91014L46.875 10.9375H43.8086H40.7227L43.0273 13.2422L45.332 15.5664L44.1406 18.5742C43.4766 20.2344 42.7539 22.0117 42.5586 22.5195C42.3438 23.0469 42.2461 23.418 42.3242 23.3789C42.4219 23.3203 44.1797 22.2656 46.25 21.0156L50 18.7695L53.7695 21.0156C55.8203 22.2656 57.5781 23.3203 57.6758 23.3789C57.7539 23.418 57.6562 23.0469 57.4414 22.5195C57.2461 22.0117 56.5234 20.2344 55.8594 18.5742L54.668 15.5664L56.9727 13.2422L59.2773 10.9375H56.1914H53.125L51.6211 7.91014C50.7812 6.24999 50.0586 4.8828 50 4.8828C49.9414 4.8828 49.2188 6.24999 48.3789 7.91014Z" fill="#DA0F0F"/>
<path d="M49.4141 22.1094C46.6212 27.1875 41.5821 32.0313 36.2696 34.7852L33.9258 35.9961L34.8633 36.3672C40.879 38.7305 49.3751 39.5898 56.3868 38.5742C59.629 38.0859 66.0352 36.3672 66.0157 35.9766C66.0157 35.8984 65.4102 35.5664 64.6876 35.2539C59.2579 32.832 53.5743 27.5391 50.586 22.1094C50.3321 21.6602 50.0587 21.2891 50.0001 21.2891C49.9415 21.2891 49.668 21.6602 49.4141 22.1094Z" fill="white"/>
<path d="M38.7695 43.1836C35.1172 46.875 30.1758 50.6445 26.5234 52.5391C25.7812 52.9102 25.1953 53.2812 25.1953 53.3594C25.1953 53.5352 28.0859 55.2539 30.0781 56.25C33.9648 58.2031 38.9648 59.7656 43.5547 60.4883C46.6797 60.957 53.3203 60.957 56.4453 60.4883C61.0938 59.7461 65.9961 58.2227 69.9414 56.25C71.9727 55.2344 74.8047 53.5352 74.8047 53.3398C74.8047 53.2617 74.4727 53.0469 74.082 52.8516C72.0508 51.8945 67.7148 48.9844 65.332 47.0117C64.6875 46.4648 63.0664 44.9414 61.7188 43.6328C59.3164 41.2695 59.2578 41.2305 58.5938 41.3672L57.9102 41.5234L57.8516 43.5937L57.793 45.6445L58.3984 45.8984C59.7266 46.4453 60.9375 48.418 60.9375 50.0391C60.9375 51.9141 59.3555 54.0234 57.5977 54.4922C56.582 54.7656 54.9609 54.6484 54.1602 54.2383C52.7148 53.4766 51.5625 51.6211 51.5625 50.0391C51.5625 48.418 52.7734 46.4453 54.1016 45.8984L54.6875 45.6641V43.8672V42.0898H50.1562C46.7773 42.0703 45.0391 41.9922 43.3789 41.7187C42.168 41.543 41.0742 41.3281 40.9375 41.2891C40.8203 41.25 39.8438 42.0898 38.7695 43.1836Z" fill="white"/>
<path d="M29.7188 62.3281C26.6915 64.9648 22.4142 67.9922 18.6056 70.1992C17.1993 71 16.8673 71.2734 17.0431 71.4883C17.1602 71.625 18.0587 72.3476 19.0352 73.0898C37.3556 86.8984 62.2384 86.9179 80.5782 73.1484C81.5743 72.4062 82.4923 71.664 82.6095 71.5078C82.7853 71.293 82.336 70.9414 80.1485 69.6523C76.8478 67.6797 73.1759 65.0625 70.4415 62.7578L68.3712 61L66.8673 61.5859C63.0587 63.0508 58.2345 64.1445 53.8399 64.5547C51.4181 64.7695 46.379 64.6914 44.4259 64.418L43.586 64.2812V66.2344V68.207L44.172 68.4414C45.5001 68.9883 46.711 70.9609 46.711 72.582C46.711 74.457 45.129 76.5664 43.3712 77.0351C42.3556 77.3086 40.7345 77.1914 39.9337 76.7812C38.4884 76.0195 37.336 74.164 37.336 72.582C37.336 70.9609 38.547 68.9883 39.8751 68.4414L40.461 68.207V66.0195V63.832L38.2735 63.2851C37.0626 62.9726 34.9923 62.3476 33.6837 61.8789C32.3751 61.4101 31.2813 61.0195 31.2423 61.0391C31.2032 61.0391 30.5196 61.625 29.7188 62.3281Z" fill="white"/>
<path d="M44.8242 86.4258C44.7461 86.9727 43.9453 94.8438 43.9453 95.1758C43.9453 95.2539 46.6797 95.3125 50 95.3125C53.3398 95.3125 56.0547 95.2539 56.0547 95.1758C56.0547 94.8438 55.2539 86.9727 55.1758 86.4258L55.0781 85.8398H50H44.9219L44.8242 86.4258Z" fill="white"/>
</svg>
