<svg width="40" height="56" viewBox="0 0 40 56" fill="none" xmlns="http://www.w3.org/2000/svg">
<path d="M19.0273 2.74611L18.125 4.56252H16.2852H14.4336L15.8164 5.94533L17.1992 7.33986L16.4844 9.14455C16.0859 10.1406 15.6523 11.207 15.5352 11.5117C15.4062 11.8281 15.3477 12.0508 15.3945 12.0274C15.4531 11.9922 16.5078 11.3594 17.75 10.6094L20 9.26174L22.2617 10.6094C23.4922 11.3594 24.5469 11.9922 24.6055 12.0274C24.6523 12.0508 24.5938 11.8281 24.4648 11.5117C24.3477 11.207 23.9141 10.1406 23.5156 9.14455L22.8008 7.33986L24.1836 5.94533L25.5664 4.56252H23.7148H21.875L20.9727 2.74611C20.4688 1.75002 20.0352 0.929705 20 0.929705C19.9648 0.929705 19.5312 1.75002 19.0273 2.74611Z" fill="#DA0F0F"/>
<path d="M19.6484 11.2657C17.9727 14.3125 14.9492 17.2188 11.7617 18.8711L10.3555 19.5977L10.918 19.8203C14.5273 21.2383 19.625 21.7539 23.832 21.1446C25.7773 20.8516 29.6211 19.8203 29.6094 19.586C29.6094 19.5391 29.2461 19.3399 28.8125 19.1524C25.5547 17.6992 22.1445 14.5235 20.3516 11.2657C20.1992 10.9961 20.0352 10.7735 20 10.7735C19.9648 10.7735 19.8008 10.9961 19.6484 11.2657Z" fill="white"/>
<path d="M13.2617 23.9102C11.0703 26.125 8.10547 28.3867 5.91406 29.5234C5.46875 29.7461 5.11719 29.9687 5.11719 30.0156C5.11719 30.1211 6.85156 31.1523 8.04688 31.75C10.3789 32.9219 13.3789 33.8594 16.1328 34.293C18.0078 34.5742 21.9922 34.5742 23.8672 34.293C26.6562 33.8477 29.5977 32.9336 31.9648 31.75C33.1836 31.1406 34.8828 30.1211 34.8828 30.0039C34.8828 29.957 34.6836 29.8281 34.4492 29.7109C33.2305 29.1367 30.6289 27.3906 29.1992 26.207C28.8125 25.8789 27.8398 24.9648 27.0312 24.1797C25.5898 22.7617 25.5547 22.7383 25.1562 22.8203L24.7461 22.9141L24.7109 24.1562L24.6758 25.3867L25.0391 25.5391C25.8359 25.8672 26.5625 27.0508 26.5625 28.0234C26.5625 29.1484 25.6133 30.4141 24.5586 30.6953C23.9492 30.8594 22.9766 30.7891 22.4961 30.543C21.6289 30.0859 20.9375 28.9727 20.9375 28.0234C20.9375 27.0508 21.6641 25.8672 22.4609 25.5391L22.8125 25.3984V24.3203V23.2539H20.0938C18.0664 23.2422 17.0234 23.1953 16.0273 23.0312C15.3008 22.9258 14.6445 22.7969 14.5625 22.7734C14.4922 22.75 13.9062 23.2539 13.2617 23.9102Z" fill="white"/>
<path d="M7.92964 34.9961C6.11324 36.5781 3.54683 38.3945 1.26167 39.7187C0.417924 40.1992 0.218705 40.3633 0.324174 40.4922C0.394486 40.5742 0.933549 41.0078 1.51949 41.4531C12.5117 49.7383 27.4414 49.75 38.4453 41.4883C39.0429 41.043 39.5937 40.5977 39.664 40.5039C39.7695 40.375 39.5 40.1641 38.1875 39.3906C36.207 38.207 34.0039 36.6367 32.3632 35.2539L31.1211 34.1992L30.2187 34.5508C27.9336 35.4297 25.039 36.0859 22.4023 36.332C20.9492 36.4609 17.9257 36.4141 16.7539 36.25L16.25 36.168V37.3398V38.5234L16.6015 38.6641C17.3984 38.9922 18.125 40.1758 18.125 41.1484C18.125 42.2734 17.1757 43.5391 16.121 43.8203C15.5117 43.9844 14.539 43.9141 14.0585 43.668C13.1914 43.2109 12.5 42.0976 12.5 41.1484C12.5 40.1758 13.2265 38.9922 14.0234 38.6641L14.375 38.5234V37.2109V35.8984L13.0625 35.5703C12.3359 35.3828 11.0937 35.0078 10.3085 34.7266C9.52339 34.4453 8.86714 34.2109 8.84371 34.2227C8.82027 34.2227 8.41011 34.5742 7.92964 34.9961Z" fill="white"/>
<path d="M16.8945 49.8555C16.8477 50.1836 16.3672 54.9062 16.3672 55.1055C16.3672 55.1523 18.0078 55.1875 20 55.1875C22.0039 55.1875 23.6328 55.1523 23.6328 55.1055C23.6328 54.9062 23.1523 50.1836 23.1055 49.8555L23.0469 49.5039H20H16.9531L16.8945 49.8555Z" fill="white"/>
</svg>
