<svg width="60" height="44" viewBox="0 0 60 44" fill="none" xmlns="http://www.w3.org/2000/svg">
<path d="M10.3594 1.01172C9.19927 1.29297 8.02739 2.25391 7.52348 3.34375C7.26567 3.90625 7.20708 4.21094 7.17192 5.26562L7.12505 6.53125H4.05473C1.38286 6.53125 0.949266 6.55469 0.585985 6.74219C-0.0819837 7.07031 -0.187452 7.87891 0.375048 8.40625C0.621141 8.64062 0.761767 8.64062 7.08989 8.64062C11.5196 8.64062 13.6758 8.67578 13.9336 8.76953C14.3086 8.89844 14.6485 9.37891 14.6485 9.80078C14.6485 9.92969 14.5196 10.1875 14.3438 10.3867L14.0508 10.7383L10.8985 10.7734C7.79302 10.8086 7.73442 10.8086 7.47661 11.0781C7.25395 11.2891 7.19536 11.5117 7.14848 12.25L7.08989 13.1523L5.76567 13.2109C4.54692 13.2695 4.41802 13.293 4.20708 13.5508C3.96098 13.8555 3.91411 14.3945 4.11333 14.7578C4.39458 15.2852 4.74614 15.3203 9.53911 15.3203H14.0391L14.3438 15.6836C14.6954 16.0938 14.7188 16.3633 14.4727 16.832C14.2032 17.3711 13.8165 17.4297 10.6407 17.4297H7.7227L7.44145 17.7227C7.1602 17.9922 7.14848 18.0625 7.14848 19.5977V21.2031L7.48833 21.543L7.82817 21.8828H11.0743C14.9766 21.8828 15.1172 21.918 15.1172 22.9961C15.1172 23.2891 15.0235 23.4648 14.754 23.6875L14.3907 23.9922H11.1797C7.1602 23.9922 7.1602 23.9922 7.14848 25.4805V26.3242L3.85552 26.3594L0.562548 26.3945L0.281298 26.7227C-0.105421 27.1797 -0.0819837 27.6719 0.339891 28.1055L0.679735 28.4453H3.91411H7.14848V32.8281V37.2109L7.51177 37.5156C7.80473 37.7617 7.99223 37.8203 8.50786 37.8203C9.67973 37.8203 10.0782 37.375 10.0782 36.0742C10.0782 34.1289 11.5079 31.4688 13.2657 30.1445C15.8438 28.1992 19.125 27.8008 21.9024 29.1016C24.7735 30.4492 26.4844 32.8281 26.836 35.9688C26.9883 37.3633 27.0235 37.4336 27.4219 37.6445C27.7149 37.7969 28.711 37.8203 34.043 37.8203H40.336L40.6758 37.4805L41.0157 37.1289L40.9922 20.6289L40.9571 4.12891L40.629 3.42578C40.0782 2.25391 39.1524 1.44531 37.9688 1.09375C37.4063 0.929688 35.8594 0.90625 24.0352 0.917969C16.711 0.929688 10.5586 0.964844 10.3594 1.01172ZM20.6719 13.5742C21.0235 13.9844 21.0469 14.2539 20.8008 14.7344C20.5665 15.1914 19.9688 15.3555 18.8204 15.2969C18.0352 15.2617 17.8946 15.2148 17.6133 14.9453C17.1797 14.5117 17.1915 13.8555 17.6368 13.4805C17.918 13.2344 18.0586 13.2109 19.1602 13.2109C20.3672 13.2109 20.3672 13.2109 20.6719 13.5742ZM13.4883 26.6758C13.9454 27.1445 13.9454 27.6367 13.4883 28.1055L13.1485 28.4453H11.2735C9.58598 28.4453 9.37505 28.4219 9.10552 28.2109C8.74224 27.918 8.61333 27.4492 8.80083 27.0156C9.0352 26.4297 9.36333 26.3477 11.3438 26.3359H13.1485L13.4883 26.6758Z" fill="white"/>
<path d="M43.4648 16.0117L43.125 16.3516V23.043V29.7227L43.4062 30.0508C43.8164 30.5312 44.4141 30.4961 45.1875 29.9336C49.7812 26.6172 56.2617 28.7266 58.1367 34.1523C58.2656 34.5273 58.4297 35.3594 58.5 35.9922C58.6406 37.2461 58.8164 37.5859 59.3438 37.5859C59.9883 37.5859 60 37.4922 60 32.2891C60 29.418 59.9531 27.4023 59.8828 27.2148C59.6484 26.5938 59.4141 26.5703 53.8594 26.5703C49.0078 26.5703 48.7266 26.5586 48.1172 26.3359C46.8984 25.8789 45.9844 24.9062 45.5859 23.6523C45.375 22.9844 45.3516 22.5859 45.3516 19.6328V16.3516L45.0117 16.0117C44.7539 15.7656 44.5547 15.6719 44.2383 15.6719C43.9219 15.6719 43.7227 15.7656 43.4648 16.0117Z" fill="white"/>
<path d="M47.8125 16L47.4609 16.3516V19.5625C47.4609 22.4219 47.4844 22.8086 47.6836 23.2305C47.9297 23.7695 48.3164 24.1562 48.7852 24.332C48.9961 24.4141 50.7422 24.4609 53.7305 24.4609H58.3359L58.6406 24.0977C58.8047 23.8984 58.9453 23.6172 58.9453 23.4531C58.9453 23.1836 57.6562 21.1914 55.6406 18.3438C54.7617 17.0898 53.9883 16.4453 52.8633 16C52.3008 15.7773 51.9258 15.7422 50.1914 15.6953L48.1641 15.6484L47.8125 16Z" fill="white"/>
<path d="M1.72256 20.0078C1.35928 20.3008 1.23038 20.7695 1.41788 21.2031C1.62881 21.7188 2.07413 21.8828 3.22256 21.8828C4.61709 21.8828 5.02725 21.6367 5.03897 20.793C5.03897 20.4766 4.95694 20.2656 4.746 20.0664C4.48819 19.7969 4.38272 19.7734 3.246 19.7734C2.20303 19.7734 1.98038 19.8086 1.72256 20.0078Z" fill="white"/>
<path d="M17.168 30.5782C16.0898 30.7774 14.9062 31.4454 14.0039 32.3594C12.7148 33.6602 12.1875 34.9493 12.1875 36.7657C12.1875 38.5938 12.7266 39.8946 13.9922 41.1719C16.0078 43.1875 18.832 43.6563 21.3516 42.379C22.1836 41.9571 23.2734 40.9727 23.8008 40.1524C25.0781 38.1602 25.0781 35.3711 23.7891 33.3672C23.2383 32.5118 22.1367 31.5508 21.1758 31.0938C19.8867 30.4727 18.5742 30.3086 17.168 30.5782Z" fill="#F88506"/>
<path d="M48.8086 30.5781C47.7656 30.7656 46.5352 31.457 45.6914 32.3008C44.4375 33.5547 43.8281 35.0078 43.8281 36.7656C43.8281 38.5235 44.4375 39.9766 45.6914 41.2305C47.25 42.7891 49.418 43.4219 51.5391 42.918C53.1094 42.543 54.5273 41.5235 55.4531 40.1172C56.7305 38.1602 56.7305 35.3828 55.4531 33.4141C54 31.1875 51.4219 30.0742 48.8086 30.5781Z" fill="#F88506"/>
</svg>
