<svg width="49" height="49" viewBox="0 0 49 49" fill="none" xmlns="http://www.w3.org/2000/svg">
<path d="M17.0313 5.71094V10.4688L14.4297 10.4922L11.8164 10.5273L11.7813 13.1641L11.7461 15.8008L10.5508 16.3633C9.02737 17.0898 7.41018 18.2266 6.12112 19.4922C4.97268 20.6289 3.61331 22.4102 3.76565 22.5625C3.82424 22.6211 4.62112 23.1016 5.5469 23.6406L7.22268 24.625L8.1719 24.0625C8.69924 23.7578 9.92971 23.0313 10.9258 22.4453L12.7305 21.3906L13.6797 21.9531C17.418 24.1445 18.1563 24.5664 18.2617 24.5664C18.3321 24.5664 19.5625 23.8633 21.0156 23.0078C22.4688 22.1523 23.711 21.4492 23.7696 21.4492C23.8399 21.4492 25.1055 22.1641 26.5821 23.043L29.2774 24.625L29.6289 24.4141C29.8281 24.3086 30.625 23.8281 31.4219 23.3711L32.8516 22.5273L32.3594 21.8125C31.6211 20.7578 29.6641 18.7539 28.5156 17.8984C27.9649 17.4883 26.875 16.8203 26.0899 16.4219L24.6485 15.6953V13.082V10.4688H22.0703H19.4922L19.4688 5.7461L19.4336 1.03516L18.2383 1L17.0313 0.964846V5.71094Z" fill="white"/>
<path d="M33.8828 4.80864L33.8477 8.65239L31.8906 8.68755L29.9219 8.71099V10.7969V12.8829L29.3125 13.1407C28.7031 13.3985 26.7578 14.5704 26.7578 14.6875C26.7578 14.7227 27.1563 14.9571 27.6367 15.2149C30.8008 16.8672 33.918 20.2305 35.5352 23.7344C37.6328 28.2696 37.8555 33.5782 36.1328 38.2422C35.5469 39.836 35.5234 39.6836 36.3203 39.5899C36.6953 39.543 37.4102 39.4258 37.8906 39.3321C42.8008 38.3594 46.9141 34.5977 48.3672 29.7696C48.8125 28.2813 48.9414 27.4141 48.9414 25.7618C48.9414 21.9766 47.5586 18.6133 44.9219 15.9766C43.8672 14.9219 42.4961 13.9375 41.0899 13.2344L40.2344 12.8125V10.7618V8.71099L38.2774 8.68755L36.3086 8.65239L36.2734 4.80864L36.25 0.976612H35.0781H33.9063L33.8828 4.80864Z" fill="white"/>
<path d="M10 25.0703C8.54688 25.9258 7.26954 26.6172 7.16407 26.5938C7.0586 26.5703 6.03907 26.0078 4.91407 25.3516C3.77735 24.6953 2.8047 24.1914 2.7461 24.2266C2.5586 24.3438 1.83204 26.3242 1.51563 27.5781C0.812509 30.4375 0.812509 32.9453 1.50392 35.8398C1.75001 36.9063 2.35938 38.6641 2.60548 39.0391C2.67579 39.1563 3.22657 38.8867 4.85548 37.9375C6.03907 37.2461 7.0586 36.6836 7.12892 36.6836C7.18751 36.6836 8.46485 37.4102 9.96485 38.2773L12.6836 39.8828L15.4141 38.2773C16.9141 37.3984 18.2031 36.6836 18.2617 36.6836C18.332 36.6836 19.6094 37.3984 21.1094 38.2773L23.8281 39.8711L26.5586 38.2773C28.0469 37.3984 29.3359 36.6836 29.3945 36.6836C29.4649 36.6836 30.4844 37.2461 31.6563 37.9375C32.8399 38.6406 33.8242 39.1797 33.8359 39.1563C33.8594 39.1445 34.0703 38.6406 34.293 38.0547C35.9453 33.9063 35.8516 28.8906 34.0586 24.8477C33.8945 24.4844 33.7188 24.1797 33.6719 24.1797C33.625 24.1797 32.6758 24.707 31.5742 25.3516C30.4727 26.0078 29.4883 26.5586 29.3945 26.6055C29.2891 26.6406 28.0938 26.0078 26.5586 25.1055C25.0938 24.25 23.8399 23.5586 23.7578 23.5586C23.6875 23.5586 22.4336 24.25 20.9688 25.1055C19.375 26.043 18.2383 26.6289 18.1211 26.5938C18.0274 26.5586 16.8086 25.8555 15.4258 25.0469C14.043 24.2383 12.8477 23.5586 12.7774 23.5352C12.6953 23.5117 11.4531 24.2031 10 25.0703ZM4.84376 31.6211V32.5H4.08204H3.32032V31.6211V30.7422H4.08204H4.84376V31.6211ZM10.8203 31.6211V32.5H9.29688H7.77345V31.6211V30.7422H9.29688H10.8203V31.6211ZM16.7969 31.6211V32.5H15.2734H13.75V31.6211V30.7422H15.2734H16.7969V31.6211ZM22.75 31.6445L22.7852 32.5H21.25H19.7266V31.6211V30.7305L21.2266 30.7656L22.7149 30.8008L22.75 31.6445ZM28.6328 31.6211V32.5H27.168H25.7031V31.6211V30.7422H27.168H28.6328V31.6211ZM33.2031 31.6211V32.5H32.4414H31.6797V31.6211V30.7422H32.4414H33.2031V31.6211Z" fill="#FFE800"/>
<path d="M5.37106 39.7071C4.46872 40.2461 3.68356 40.7149 3.61325 40.7383C3.55466 40.7618 3.75388 41.1368 4.05856 41.5586C6.76559 45.3438 10.3867 47.7227 14.9687 48.6954C16.5156 49.0235 19.5859 49.0586 21.2148 48.7539C24.707 48.1094 27.9648 46.3985 30.4492 43.9024C31.5625 42.7657 32.8984 41.0313 32.8281 40.8086C32.8046 40.7383 32.0195 40.2344 31.0937 39.6836C29.8515 38.9571 29.3476 38.7227 29.2187 38.8047C27.9765 39.5664 23.9336 41.875 23.8281 41.875C23.7461 41.875 22.5742 41.2188 21.2031 40.4336C19.8437 39.6368 18.6132 38.9219 18.4726 38.8516C18.25 38.7344 17.8984 38.8985 15.5195 40.293C14.0312 41.1602 12.7539 41.875 12.6836 41.875C12.6015 41.875 11.3711 41.1836 9.92965 40.3516C8.49997 39.5079 7.24606 38.8047 7.16403 38.7813C7.082 38.7461 6.27341 39.168 5.37106 39.7071Z" fill="white"/>
</svg>
