<svg width="60" height="54" viewBox="0 0 60 54" fill="none" xmlns="http://www.w3.org/2000/svg">
<path d="M39.375 1.3125C38.7656 1.92188 38.8594 2.25 39.9726 3.39844C40.9687 4.41797 41.3203 4.59375 41.8828 4.38281C42.2344 4.25391 42.5273 3.67969 42.457 3.28125C42.4219 3.12891 41.9648 2.57813 41.4492 2.0625C40.2773 0.902346 39.9258 0.773439 39.375 1.3125Z" fill="white"/>
<path d="M44.5665 2.07433C43.3243 3.31652 43.2305 3.57433 43.8282 4.17199C44.1446 4.47668 44.2501 4.52355 44.6251 4.46496C44.9766 4.40636 45.2579 4.19543 46.0313 3.41027C46.8633 2.5548 46.9922 2.3673 46.9922 2.02746C46.9805 1.58214 46.8282 1.32433 46.4415 1.12511C45.9141 0.843862 45.6915 0.949331 44.5665 2.07433Z" fill="white"/>
<path d="M41.2969 5.53125C41.1562 5.55469 40.5937 6.03516 40.0312 6.59766C39.1992 7.46484 39.0234 7.69922 39.0234 8.00391C39.0234 8.53125 39.4687 8.95312 40.0312 8.95312C40.4062 8.95312 40.5703 8.84766 41.3672 8.0625C41.8711 7.57031 42.3515 7.01953 42.4336 6.82031C42.7148 6.14062 42.0586 5.40234 41.2969 5.53125Z" fill="white"/>
<path d="M44.0859 5.62503C43.6288 5.81253 43.4413 6.17581 43.5234 6.65628C43.582 6.93753 43.8749 7.31253 44.578 7.99222C45.5741 8.96487 45.8671 9.1055 46.4648 8.88284C46.6874 8.78909 46.9921 8.23831 46.9921 7.88675C46.9921 7.57034 45.0937 5.60159 44.707 5.53128C44.5546 5.49612 44.2734 5.543 44.0859 5.62503Z" fill="white"/>
<path d="M55.4766 6.15247C54.8555 6.32825 53.9883 6.9845 53.5899 7.58215C52.6641 8.96497 52.8868 10.8868 54.1055 12.0118C54.8438 12.6915 55.5118 12.9611 56.4961 12.9611C57.879 12.9611 59.0508 12.2228 59.6719 10.9572C60.0704 10.1486 60.0469 8.76575 59.6251 7.94544C58.8516 6.46887 57.0586 5.69544 55.4766 6.15247ZM57.3165 8.28528C57.7852 8.60169 58.0899 9.32825 57.961 9.83215C57.9141 10.0079 57.7032 10.3361 57.4805 10.5587C57.1407 10.8986 57.0118 10.9454 56.5079 10.9454C55.793 10.9454 55.2657 10.5704 55.0899 9.91419C54.7032 8.55481 56.1446 7.50012 57.3165 8.28528Z" fill="white"/>
<path d="M4.60542 7.07815C4.06636 7.3008 3.96089 7.66409 4.00777 9.12893C4.04292 10.4063 4.06636 10.5117 4.32417 10.7227C4.74605 11.0625 5.42574 11.0156 5.73042 10.6406C5.94136 10.3711 5.97652 10.1602 5.97652 9.00002C5.97652 7.79299 5.95308 7.65237 5.7187 7.38284C5.41402 7.04299 4.98042 6.9258 4.60542 7.07815Z" fill="white"/>
<path d="M29.1796 9.76172C26.203 12.0234 23.953 15.5977 23.2382 19.2305C23.0038 20.4727 22.9687 23.4023 23.1913 24.5273C23.4257 25.7344 23.8827 27.2109 24.328 28.1602L24.7382 29.0508L25.1132 28.3125C26.0155 26.543 27.3046 25.2539 29.0155 24.4102L29.953 23.9414L30.4804 24.1406C32.2616 24.832 33.9491 26.4492 34.9218 28.3711L35.2616 29.0508L35.6718 28.1602C37.2187 24.832 37.4179 20.6367 36.1874 17.1797C35.3554 14.8008 34.0663 12.7969 32.2499 11.0391C31.3124 10.1367 30.1523 9.1875 29.9765 9.1875C29.953 9.1875 29.6015 9.44531 29.1796 9.76172Z" fill="white"/>
<path d="M0.585937 11.1446C-0.1875 11.543 -0.1875 12.4571 0.585937 12.8555C0.925781 13.0313 1.21875 13.0665 2.21484 13.0313C3.375 12.9962 3.43359 12.9727 3.70312 12.668C4.06641 12.2462 4.06641 11.754 3.70312 11.3321C3.43359 11.0274 3.375 11.004 2.21484 10.9688C1.21875 10.9337 0.925781 10.9688 0.585937 11.1446Z" fill="white"/>
<path d="M6.60934 11.1094C5.76559 11.4844 5.84762 12.6446 6.73824 12.9376C7.00777 13.0313 7.59371 13.0665 8.2734 13.0313C9.22262 12.9961 9.41012 12.9493 9.66793 12.7032C10.0781 12.3165 10.0781 11.6719 9.65621 11.2852C9.38668 11.0391 9.24605 11.004 8.16793 10.9805C7.3359 10.9571 6.86715 10.9922 6.60934 11.1094Z" fill="white"/>
<path d="M4.32422 13.2774C4.05469 13.4883 4.04297 13.5704 4.04297 14.9766C4.04297 16.336 4.06641 16.4649 4.30078 16.711C4.6875 17.0977 5.34375 17.0626 5.69531 16.6407C5.95312 16.3477 5.97656 16.2188 5.97656 15.0001C5.97656 13.8399 5.94141 13.629 5.73047 13.3594C5.42578 12.9844 4.74609 12.9376 4.32422 13.2774Z" fill="white"/>
<path d="M12.7733 17.2383C11.6718 17.2969 10.5702 17.5196 10.4999 17.6836C10.4765 17.7657 10.3827 18.4688 10.3007 19.2539C10.0546 21.5977 10.4413 24.3047 11.3437 26.543C11.7421 27.5508 11.5429 27.4922 13.7694 27.1758C16.1483 26.836 19.1483 27.0938 21.2577 27.8204C21.6444 27.9493 21.9726 28.0313 21.996 28.0079C22.0312 27.9844 21.914 27.5274 21.7499 27C21.1171 25.0196 20.8944 22.4649 21.1288 20.0157L21.2108 19.0664L20.3671 18.6797C17.9999 17.625 15.2108 17.0977 12.7733 17.2383Z" fill="white"/>
<path d="M45.4102 17.2266C43.2423 17.4141 41.6251 17.8125 39.8555 18.586L38.7657 19.0664L38.836 19.6055C39.1758 22.2657 38.9532 24.8672 38.1915 27.211C38.0508 27.6211 37.9688 27.9727 37.9923 28.0079C38.0274 28.0313 38.3555 27.9493 38.7423 27.8204C40.8516 27.0938 43.8516 26.836 46.2305 27.1758C48.4571 27.4922 48.2579 27.5508 48.6563 26.543C49.5352 24.3399 49.9337 21.6211 49.6993 19.3711C49.5118 17.4375 49.5587 17.543 48.6563 17.4024C47.7305 17.2618 46.0665 17.168 45.4102 17.2266Z" fill="white"/>
<path d="M29.3555 26.4609C27.504 27.6797 26.3204 29.6719 26.086 31.9336C25.9454 33.2109 26.0509 33.4805 26.8126 33.9492C28.418 34.9453 29.8946 36.7734 30.4688 38.4727C30.6329 38.9297 30.8087 39.3047 30.8673 39.3047C30.9259 39.3047 31.3477 38.918 31.8048 38.4492C33.3165 36.9141 33.8673 35.4023 33.8907 32.8008C33.9024 31.4297 33.8673 31.1836 33.5743 30.293C33.0235 28.6641 32.0157 27.3516 30.6563 26.4727C30.3048 26.25 30.0001 26.0625 29.9766 26.0742C29.9532 26.0742 29.6837 26.25 29.3555 26.4609Z" fill="#007E62"/>
<path d="M13.5937 29.1797C10.8398 29.6251 7.86328 31.0665 5.80078 32.9532C5.05078 33.6446 3.9375 34.8868 3.49219 35.5313L3.15234 36.0235L3.79687 36.879C5.17969 38.7305 7.55859 40.629 9.65625 41.5899C10.7344 42.0821 12.1406 42.5157 13.4766 42.7618C14.6133 42.9727 17.6602 43.0196 17.8594 42.8204C17.9414 42.7383 17.9297 42.7032 17.8359 42.7032C17.6016 42.7032 16.0547 41.1563 15.5625 40.4297C14.5781 38.9883 13.9687 37.1133 14.0508 35.7657C14.0625 35.4844 14.7891 34.711 15.6094 34.0665C16.4648 33.4219 17.9883 32.6954 19.0547 32.4375C20.1094 32.1797 22.0781 32.1797 23.1211 32.4375C23.5664 32.543 23.9766 32.625 24.0352 32.625C24.1055 32.625 24.1406 32.3438 24.1172 31.9571L24.082 31.2774L22.793 30.6329C20.6016 29.5196 18.9492 29.1094 16.4062 29.0391C15.2461 29.0157 14.3555 29.0508 13.5937 29.1797Z" fill="white"/>
<path d="M42.0117 29.1211C40.2539 29.3438 38.2852 30 36.7148 30.8672L35.8594 31.3477V31.9805C35.8594 32.3321 35.9063 32.625 35.9648 32.625C36.0352 32.625 36.4336 32.543 36.8789 32.4375C38.0156 32.1563 39.9961 32.1797 41.1445 32.4844C42.5977 32.8711 44.0156 33.6563 45.1641 34.7344C45.9258 35.4375 46.043 35.7305 45.9141 36.6446C45.6211 38.8008 44.3789 40.9805 42.6445 42.3516C42.3281 42.5977 42.1172 42.8321 42.1875 42.879C42.4219 43.0313 45.4688 42.9493 46.5234 42.7618C50.332 42.1055 53.918 39.9258 56.1563 36.9258L56.8359 36L56.4961 35.5079C55.6875 34.336 54.0938 32.7657 52.7109 31.7813C49.6992 29.6133 45.7852 28.6524 42.0117 29.1211Z" fill="white"/>
<path d="M20.0859 34.2539C18.8555 34.4531 17.3555 35.1328 16.5 35.9063L16.0078 36.3398L16.1602 37.0078C16.6641 39.293 18.6914 41.3672 21.1758 42.1758L21.7969 42.375L22.3477 41.8828C23.7188 40.6875 25.4297 39.9609 27.457 39.7383C28.2539 39.6563 28.7109 39.5508 28.7109 39.4688C28.7109 39.1523 27.7383 37.4414 27.2461 36.8789C25.6758 35.0977 22.3945 33.8906 20.0859 34.2539Z" fill="#007E62"/>
<path d="M37.8281 34.2657C37.5117 34.3126 36.9375 34.4767 36.5274 34.6056L35.7774 34.8634L35.625 35.5314C35.168 37.5939 33.7969 39.6564 32.0508 40.9103C31.6992 41.1564 31.6992 41.1681 31.9336 41.3556C32.4141 41.7423 33.8438 42.3634 34.6875 42.5392C36.2344 42.8673 38.3086 42.5392 40.0781 41.6837C41.836 40.84 43.3945 38.8829 43.8281 36.9845C44.0039 36.2345 43.9336 36.129 42.7617 35.3673C41.3555 34.4532 39.3164 33.9962 37.8281 34.2657Z" fill="#007E62"/>
<path d="M26.7773 41.836C25.0547 42.211 23.6953 43.1133 22.3711 44.7774C21.1289 46.336 20.625 47.7422 20.625 49.6172C20.625 50.7774 20.7188 51.2696 21.1172 52.2774C21.3398 52.8633 21.375 52.8868 21.8789 52.9688C22.5117 53.0625 23.625 52.9571 24.4922 52.711C26.0391 52.2657 27.7734 50.9766 28.5234 49.711L28.8281 49.1836L28.5938 48.6446C27.7266 46.6875 27.6562 43.793 28.418 41.8477C28.4883 41.6836 28.4297 41.6485 28.0547 41.6602C27.7969 41.6602 27.2344 41.7422 26.7773 41.836Z" fill="#007E62"/>
<path d="M30.1288 43.0313C29.9062 43.6992 29.8359 45.6328 29.9999 46.4766C30.2812 47.918 31.4062 49.8868 32.5898 51.0352C33.996 52.3946 36.3984 53.2266 38.1327 52.9688C38.6249 52.8868 38.6601 52.8633 38.8827 52.2774C39.2812 51.2696 39.3749 50.7774 39.3749 49.6172C39.3749 47.9063 38.8945 46.4063 37.9335 45.1524L37.5351 44.6485L36.0234 44.625C34.8632 44.6133 34.3124 44.5547 33.6562 44.3555C32.6484 44.0625 31.5702 43.5352 30.8085 42.9844L30.2695 42.5977L30.1288 43.0313Z" fill="#007E62"/>
</svg>
